<svg width="864" height="193" viewBox="0 0 864 193" fill="none" xmlns="http://www.w3.org/2000/svg">
<path d="M4.47615 42.985C4.47615 58.7671 34.4474 62.9458 45.7242 60.4398C49.7382 59.5478 59.8009 44.3144 54.4028 41.2298C48.2474 37.7124 37.6963 38.134 32.5599 42.985C22.0862 52.8768 14.1285 65.3078 8.37667 78.0897C5.92017 83.5486 6.36125 88.4329 6.23138 94.2769C6.06482 101.772 3.48941 109.115 4.57366 116.705C5.79862 125.28 25.6561 121.686 30.8047 120.215C41.9641 117.027 49.1956 108.845 57.1332 100.908" stroke="black" stroke-width="8" stroke-linecap="round"/>
<path d="M71.1749 88.6212C71.1749 94.473 70.548 99.9362 72.9301 105.296C76.0484 112.312 76.4406 114.042 76.4406 105.296C76.4406 101.094 67.1454 73.0611 71.1749 72.8241C77.323 72.4625 81.7536 70.7658 87.8496 69.4112C94.2026 67.9994 99.5107 61.9442 105.402 60.635C109.832 59.6506 108.035 74.4034 108.035 77.2122C108.035 86.3452 109.487 89.5589 115.056 96.5198C122.183 105.429 143.199 90.2217 145.285 82.5754C146.967 76.4065 148.361 66.0874 146.552 59.7574C145.449 55.8965 134.158 55.6722 131.828 58.0021C123.162 66.6679 131.068 85.3258 137.874 92.1317C147.62 101.878 164.151 90.5319 167.713 79.8451" stroke="black" stroke-width="8" stroke-linecap="round"/>
<path d="M116.812 32.4536C130.702 32.4536 157.182 21.0131 157.182 4.36987" stroke="black" stroke-width="8" stroke-linecap="round"/>
<path d="M171.224 81.6002C171.797 76.4385 177.321 69.7663 180 65.4131C182.926 60.6584 185.711 52.8284 186.923 47.3731C188.435 40.5699 184.389 41.2298 179.122 41.2298C173.523 41.2298 170.221 50.8062 167.713 54.8817C152.101 80.2522 201.559 99.4202 206.328 85.1107" stroke="black" stroke-width="8" stroke-linecap="round"/>
<path d="M285.314 86.8659C296.88 85.5807 308.752 64.9939 311.252 55.2716C313.652 45.9411 314.945 36.1812 317.786 27.0903C318.721 24.0989 318.663 14.595 318.663 17.7291C318.663 20.5895 318.663 23.4499 318.663 26.3102C318.663 38.663 309.983 56.2186 316.908 68.3384C322.215 77.6247 343.097 76.3344 352.013 76.3344" stroke="black" stroke-width="8" stroke-linecap="round"/>
<path d="M288.824 39.4746H343.237" stroke="black" stroke-width="8" stroke-linecap="round"/>
<path d="M380.096 37.7192C370.734 37.7192 367.723 43.1408 363.422 50.8835C361.032 55.1841 357.675 69.5148 361.764 73.604C373.159 84.9987 394.138 72.999 394.138 57.9044C394.138 52.3235 394.836 42.9849 387.117 42.9849C380.662 42.9849 376.586 49.2079 376.586 55.2716C376.586 65.3051 403.102 79.4697 408.18 69.3135" stroke="black" stroke-width="8" stroke-linecap="round"/>
<path d="M408.18 69.3136C408.18 53.8296 429.843 51.1823 436.654 64.0479C439.766 69.926 439.774 78.4434 439.774 85.1107C439.774 88.6212 439.774 92.1317 439.774 95.6422C439.774 97.2374 439.774 89.5054 439.774 87.7436C439.774 80.7497 443.434 73.4707 444.943 66.6808C446.053 61.6853 458.074 54.0112 462.592 59.6598C472.143 71.5983 469.613 86.3599 469.613 100.908" stroke="black" stroke-width="8" stroke-linecap="round"/>
<path d="M545.089 109.684C545.089 109.711 544.467 99.7545 545.186 96.5197C546.616 90.0879 551.167 82.805 555.62 78.0897C559.569 73.9081 564.445 71.2079 570.442 72.9215C576.725 74.7165 574.574 84.7954 577.073 88.231C579.195 91.1484 579.423 99.6561 578.341 103.443C576.02 111.566 576.683 106.574 576.683 100.518C576.683 90.1583 578.606 72.824 591.602 72.824C606.39 72.824 608.277 87.6039 608.277 100.03C608.277 108.908 608.277 106.58 608.277 99.1525C608.277 93.3395 607.272 87.2102 610.032 82.3803C614.591 74.4031 629.34 69.1353 629.34 82.4778C629.34 88.9445 631.095 94.4039 631.095 100.908C631.095 108.027 630.191 115.323 632.85 121.971" stroke="black" stroke-width="8" stroke-linecap="round"/>
<path d="M671.466 90.3763C655.518 90.3763 628.618 97.9666 638.507 120.215C641.328 126.564 648.676 132.502 655.669 132.502C665.295 132.502 669.851 125.228 674.099 117.582C677.978 110.599 680.184 101.083 678.39 93.0091C675.886 81.7421 660.017 91.0851 656.059 96.032C650.506 102.973 658.344 110.28 663.08 113.194C671.331 118.272 678.571 120.215 688.141 120.215C700.661 120.215 704.921 80.2193 721.49 93.1066C733.244 102.248 723.242 152.632 722.368 137.768C721.489 122.834 719.743 99.1524 739.043 99.1524C760.13 99.1524 742.905 136.627 752.207 141.278" stroke="black" stroke-width="8" stroke-linecap="round"/>
<path d="M783.8 109.684C782.733 101.145 764.335 118.618 762.738 120.215C756.954 125.999 748.038 138.539 750.549 147.324C751.761 151.567 766.818 157.075 770.636 157.075C778.343 157.075 785.241 148.086 785.556 139.913C785.753 134.793 787.153 130.072 787.311 124.701C787.47 119.3 787.973 110.001 789.456 104.808C792.809 93.0736 792.768 77.3946 798.72 66.6807C801.006 62.5657 799.598 59.4184 799.598 66.6807C799.598 71.9464 799.598 77.2121 799.598 82.4778C799.598 94.5632 796.087 106.88 796.087 118.85C796.087 130.933 795.417 143.253 796.087 155.32C796.756 167.369 805.166 165.851 814.517 165.851C824.018 165.851 828.106 158.601 833.922 152.785C836.56 150.147 845.34 129.83 838.213 128.992C826.715 127.639 824.115 124.565 819.295 136.012C817.154 141.099 817.127 160.194 819.783 164.974C824.403 173.291 824.717 182.843 835.58 185.257C840.249 186.294 842.754 188.67 847.867 188.67C854.213 188.67 854.561 185.761 859.276 183.404" stroke="black" stroke-width="8" stroke-linecap="round"/>
</svg>
